<mxfile host="app.diagrams.net" agent="Mozilla/5.0 (Macintosh; Intel Mac OS X 10_15_7) AppleWebKit/537.36 (KHTML, like Gecko) Chrome/131.0.0.0 Safari/537.36" version="25.0.3">
  <diagram name="Page-1" id="aq7xh1WQkkNb2bTwiHex">
    <mxGraphModel dx="3289" dy="1436" grid="1" gridSize="10" guides="1" tooltips="1" connect="1" arrows="1" fold="1" page="1" pageScale="1" pageWidth="1169" pageHeight="1654" math="0" shadow="0">
      <root>
        <mxCell id="0" />
        <mxCell id="1" parent="0" />
        <mxCell id="Eu6DFmh3svqsplU7HH5--1" value="Skaut" style="shape=umlActor;verticalLabelPosition=bottom;verticalAlign=top;html=1;outlineConnect=0;" vertex="1" parent="1">
          <mxGeometry x="870" y="410" width="30" height="60" as="geometry" />
        </mxCell>
        <mxCell id="Eu6DFmh3svqsplU7HH5--2" value="Radca/Vedúci družiny" style="shape=umlActor;verticalLabelPosition=bottom;verticalAlign=top;html=1;outlineConnect=0;" vertex="1" parent="1">
          <mxGeometry x="1465" y="1180" width="30" height="60" as="geometry" />
        </mxCell>
        <mxCell id="Eu6DFmh3svqsplU7HH5--4" value="Rodič" style="shape=umlActor;verticalLabelPosition=bottom;verticalAlign=top;html=1;outlineConnect=0;" vertex="1" parent="1">
          <mxGeometry x="760" y="80" width="30" height="60" as="geometry" />
        </mxCell>
        <mxCell id="Eu6DFmh3svqsplU7HH5--9" value="Odieľový vedúci" style="shape=umlActor;verticalLabelPosition=bottom;verticalAlign=top;html=1;outlineConnect=0;" vertex="1" parent="1">
          <mxGeometry x="100" y="862.5" width="30" height="60" as="geometry" />
        </mxCell>
        <mxCell id="Eu6DFmh3svqsplU7HH5--14" value="Prehladáva úlohy&lt;hr&gt;&lt;font style=&quot;font-size: 9px;&quot;&gt;extension points&lt;/font&gt;&lt;br&gt;&lt;div&gt;Úloha bola vykonaná&lt;/div&gt;" style="ellipse;whiteSpace=wrap;html=1;" vertex="1" parent="1">
          <mxGeometry x="940" y="70" width="160" height="100" as="geometry" />
        </mxCell>
        <mxCell id="Eu6DFmh3svqsplU7HH5--18" value="prezerá získaný počet bodov" style="ellipse;whiteSpace=wrap;html=1;" vertex="1" parent="1">
          <mxGeometry x="1300" y="90" width="140" height="70" as="geometry" />
        </mxCell>
        <mxCell id="Eu6DFmh3svqsplU7HH5--19" value="&amp;lt;&amp;lt;extends&amp;gt;&amp;gt;" style="endArrow=block;endSize=16;endFill=0;html=1;rounded=0;entryX=0.951;entryY=0.726;entryDx=0;entryDy=0;entryPerimeter=0;exitX=0;exitY=0.5;exitDx=0;exitDy=0;dashed=1;" edge="1" parent="1" source="Eu6DFmh3svqsplU7HH5--18" target="Eu6DFmh3svqsplU7HH5--14">
          <mxGeometry x="0.0028" width="160" relative="1" as="geometry">
            <mxPoint x="850" y="350" as="sourcePoint" />
            <mxPoint x="1010" y="350" as="targetPoint" />
            <mxPoint as="offset" />
          </mxGeometry>
        </mxCell>
        <mxCell id="Eu6DFmh3svqsplU7HH5--22" value="&lt;font style=&quot;font-size: 10px;&quot;&gt;(Úloha bola vykonaná)&lt;/font&gt;" style="text;html=1;align=center;verticalAlign=middle;resizable=0;points=[];autosize=1;strokeColor=none;fillColor=none;" vertex="1" parent="1">
          <mxGeometry x="1140" y="95" width="120" height="30" as="geometry" />
        </mxCell>
        <mxCell id="Eu6DFmh3svqsplU7HH5--26" value="" style="endArrow=none;html=1;rounded=0;entryX=0;entryY=0.566;entryDx=0;entryDy=0;entryPerimeter=0;exitX=1;exitY=0.3333333333333333;exitDx=0;exitDy=0;exitPerimeter=0;" edge="1" parent="1" source="Eu6DFmh3svqsplU7HH5--4" target="Eu6DFmh3svqsplU7HH5--14">
          <mxGeometry width="50" height="50" relative="1" as="geometry">
            <mxPoint x="710" y="260" as="sourcePoint" />
            <mxPoint x="790" y="310" as="targetPoint" />
          </mxGeometry>
        </mxCell>
        <mxCell id="Eu6DFmh3svqsplU7HH5--28" value="upozorňuje na splnenie úlohy" style="ellipse;whiteSpace=wrap;html=1;" vertex="1" parent="1">
          <mxGeometry x="1130" y="310" width="140" height="70" as="geometry" />
        </mxCell>
        <mxCell id="Eu6DFmh3svqsplU7HH5--29" value="dostáva upozornenia na riešenie rovnakých úloh" style="ellipse;whiteSpace=wrap;html=1;" vertex="1" parent="1">
          <mxGeometry x="1130" y="410" width="150" height="70" as="geometry" />
        </mxCell>
        <mxCell id="Eu6DFmh3svqsplU7HH5--31" value="" style="endArrow=none;html=1;rounded=0;entryX=0;entryY=0.374;entryDx=0;entryDy=0;entryPerimeter=0;exitX=1;exitY=0.3333333333333333;exitDx=0;exitDy=0;exitPerimeter=0;" edge="1" parent="1" source="Eu6DFmh3svqsplU7HH5--1" target="Eu6DFmh3svqsplU7HH5--29">
          <mxGeometry width="50" height="50" relative="1" as="geometry">
            <mxPoint x="920" y="480" as="sourcePoint" />
            <mxPoint x="920" y="520" as="targetPoint" />
          </mxGeometry>
        </mxCell>
        <mxCell id="Eu6DFmh3svqsplU7HH5--32" value="" style="endArrow=none;html=1;rounded=0;entryX=0;entryY=0.5;entryDx=0;entryDy=0;exitX=1;exitY=0.3333333333333333;exitDx=0;exitDy=0;exitPerimeter=0;" edge="1" parent="1" source="Eu6DFmh3svqsplU7HH5--1" target="Eu6DFmh3svqsplU7HH5--28">
          <mxGeometry width="50" height="50" relative="1" as="geometry">
            <mxPoint x="870" y="570" as="sourcePoint" />
            <mxPoint x="920" y="520" as="targetPoint" />
          </mxGeometry>
        </mxCell>
        <mxCell id="Eu6DFmh3svqsplU7HH5--33" value="" style="endArrow=block;html=1;rounded=0;entryX=1;entryY=1;entryDx=0;entryDy=0;entryPerimeter=0;exitX=0;exitY=0.3333333333333333;exitDx=0;exitDy=0;exitPerimeter=0;startArrow=none;startFill=0;endFill=0;endSize=16;" edge="1" parent="1" source="Eu6DFmh3svqsplU7HH5--1" target="Eu6DFmh3svqsplU7HH5--4">
          <mxGeometry width="50" height="50" relative="1" as="geometry">
            <mxPoint x="870" y="460" as="sourcePoint" />
            <mxPoint x="920" y="410" as="targetPoint" />
          </mxGeometry>
        </mxCell>
        <mxCell id="Eu6DFmh3svqsplU7HH5--34" value="" style="endArrow=block;html=1;rounded=0;exitX=1;exitY=0.3333333333333333;exitDx=0;exitDy=0;exitPerimeter=0;entryX=0;entryY=0.3333333333333333;entryDx=0;entryDy=0;entryPerimeter=0;endFill=0;endSize=16;" edge="1" parent="1" source="Eu6DFmh3svqsplU7HH5--2" target="Eu6DFmh3svqsplU7HH5--1">
          <mxGeometry width="50" height="50" relative="1" as="geometry">
            <mxPoint x="880" y="580" as="sourcePoint" />
            <mxPoint x="890" y="470" as="targetPoint" />
          </mxGeometry>
        </mxCell>
        <mxCell id="Eu6DFmh3svqsplU7HH5--36" value="Schvaluje úlohy vrámci svojej družiny" style="ellipse;whiteSpace=wrap;html=1;" vertex="1" parent="1">
          <mxGeometry x="1775" y="950" width="140" height="70" as="geometry" />
        </mxCell>
        <mxCell id="Eu6DFmh3svqsplU7HH5--38" value="Udeľuje body za úlohu" style="ellipse;whiteSpace=wrap;html=1;" vertex="1" parent="1">
          <mxGeometry x="2115" y="950" width="140" height="70" as="geometry" />
        </mxCell>
        <mxCell id="Eu6DFmh3svqsplU7HH5--39" value="&amp;lt;&amp;lt;include&amp;gt;&amp;gt;" style="endArrow=block;endSize=16;endFill=0;html=1;rounded=0;exitX=1;exitY=0.5;exitDx=0;exitDy=0;entryX=0;entryY=0.5;entryDx=0;entryDy=0;dashed=1;" edge="1" parent="1" source="Eu6DFmh3svqsplU7HH5--36" target="Eu6DFmh3svqsplU7HH5--38">
          <mxGeometry width="160" relative="1" as="geometry">
            <mxPoint x="1715" y="1160" as="sourcePoint" />
            <mxPoint x="1875" y="1160" as="targetPoint" />
          </mxGeometry>
        </mxCell>
        <mxCell id="Eu6DFmh3svqsplU7HH5--40" value="" style="endArrow=none;html=1;rounded=0;entryX=0;entryY=0.5;entryDx=0;entryDy=0;exitX=1;exitY=0.3333333333333333;exitDx=0;exitDy=0;exitPerimeter=0;" edge="1" parent="1" source="Eu6DFmh3svqsplU7HH5--2" target="Eu6DFmh3svqsplU7HH5--36">
          <mxGeometry width="50" height="50" relative="1" as="geometry">
            <mxPoint x="1505" y="1060" as="sourcePoint" />
            <mxPoint x="1795" y="1120" as="targetPoint" />
          </mxGeometry>
        </mxCell>
        <mxCell id="Eu6DFmh3svqsplU7HH5--41" value="Prehľadáva skautov v rámci svojej družiny" style="ellipse;whiteSpace=wrap;html=1;" vertex="1" parent="1">
          <mxGeometry x="1805" y="1340" width="140" height="70" as="geometry" />
        </mxCell>
        <mxCell id="Eu6DFmh3svqsplU7HH5--42" value="" style="endArrow=none;html=1;rounded=0;entryX=0;entryY=0.5;entryDx=0;entryDy=0;exitX=1;exitY=0.3333333333333333;exitDx=0;exitDy=0;exitPerimeter=0;" edge="1" parent="1" source="Eu6DFmh3svqsplU7HH5--2" target="Eu6DFmh3svqsplU7HH5--41">
          <mxGeometry width="50" height="50" relative="1" as="geometry">
            <mxPoint x="1535" y="1070" as="sourcePoint" />
            <mxPoint x="1775" y="1040" as="targetPoint" />
          </mxGeometry>
        </mxCell>
        <mxCell id="Eu6DFmh3svqsplU7HH5--44" value="Prehľadáva družiny" style="ellipse;whiteSpace=wrap;html=1;" vertex="1" parent="1">
          <mxGeometry x="-310" y="1112.5" width="140" height="70" as="geometry" />
        </mxCell>
        <mxCell id="Eu6DFmh3svqsplU7HH5--45" value="" style="endArrow=none;html=1;rounded=0;exitX=0;exitY=0.3333333333333333;exitDx=0;exitDy=0;exitPerimeter=0;entryX=1;entryY=0.5;entryDx=0;entryDy=0;" edge="1" parent="1" source="Eu6DFmh3svqsplU7HH5--9" target="Eu6DFmh3svqsplU7HH5--44">
          <mxGeometry width="50" height="50" relative="1" as="geometry">
            <mxPoint x="240" y="222.5" as="sourcePoint" />
            <mxPoint x="290" y="172.5" as="targetPoint" />
          </mxGeometry>
        </mxCell>
        <mxCell id="Eu6DFmh3svqsplU7HH5--46" value="Zamieta schválenie úloh v rámci svojej družiny" style="ellipse;whiteSpace=wrap;html=1;" vertex="1" parent="1">
          <mxGeometry x="1745" y="1040" width="140" height="70" as="geometry" />
        </mxCell>
        <mxCell id="Eu6DFmh3svqsplU7HH5--47" value="" style="endArrow=none;html=1;rounded=0;exitX=1;exitY=0.3333333333333333;exitDx=0;exitDy=0;exitPerimeter=0;entryX=0;entryY=0.5;entryDx=0;entryDy=0;" edge="1" parent="1" source="Eu6DFmh3svqsplU7HH5--2" target="Eu6DFmh3svqsplU7HH5--46">
          <mxGeometry width="50" height="50" relative="1" as="geometry">
            <mxPoint x="1775" y="1100" as="sourcePoint" />
            <mxPoint x="1825" y="1050" as="targetPoint" />
          </mxGeometry>
        </mxCell>
        <mxCell id="Eu6DFmh3svqsplU7HH5--48" value="Spätne zamieta už schválene úlohy v rámci svojej družiny" style="ellipse;whiteSpace=wrap;html=1;" vertex="1" parent="1">
          <mxGeometry x="1785" y="1130" width="140" height="70" as="geometry" />
        </mxCell>
        <mxCell id="Eu6DFmh3svqsplU7HH5--49" value="Odoberá body pridelené za úlohu" style="ellipse;whiteSpace=wrap;html=1;" vertex="1" parent="1">
          <mxGeometry x="2125" y="1130" width="140" height="70" as="geometry" />
        </mxCell>
        <mxCell id="Eu6DFmh3svqsplU7HH5--50" value="" style="endArrow=none;html=1;rounded=0;exitX=1;exitY=0.3333333333333333;exitDx=0;exitDy=0;exitPerimeter=0;entryX=0;entryY=0.5;entryDx=0;entryDy=0;" edge="1" parent="1" source="Eu6DFmh3svqsplU7HH5--2" target="Eu6DFmh3svqsplU7HH5--48">
          <mxGeometry width="50" height="50" relative="1" as="geometry">
            <mxPoint x="1895" y="1170" as="sourcePoint" />
            <mxPoint x="1945" y="1120" as="targetPoint" />
          </mxGeometry>
        </mxCell>
        <mxCell id="Eu6DFmh3svqsplU7HH5--51" value="&amp;lt;&amp;lt;include&amp;gt;&amp;gt;" style="endArrow=block;endSize=16;endFill=0;html=1;rounded=0;exitX=1;exitY=0.5;exitDx=0;exitDy=0;entryX=0;entryY=0.5;entryDx=0;entryDy=0;dashed=1;" edge="1" parent="1" source="Eu6DFmh3svqsplU7HH5--48" target="Eu6DFmh3svqsplU7HH5--49">
          <mxGeometry width="160" relative="1" as="geometry">
            <mxPoint x="1855" y="1020" as="sourcePoint" />
            <mxPoint x="2005" y="1070" as="targetPoint" />
          </mxGeometry>
        </mxCell>
        <mxCell id="Eu6DFmh3svqsplU7HH5--52" value="Vytvára družiny" style="ellipse;whiteSpace=wrap;html=1;" vertex="1" parent="1">
          <mxGeometry x="-300" y="792.5" width="140" height="70" as="geometry" />
        </mxCell>
        <mxCell id="Eu6DFmh3svqsplU7HH5--53" value="prideľuje vedúceho družiny" style="ellipse;whiteSpace=wrap;html=1;" vertex="1" parent="1">
          <mxGeometry x="-600" y="792.5" width="140" height="50" as="geometry" />
        </mxCell>
        <mxCell id="Eu6DFmh3svqsplU7HH5--54" value="mení role vedúcich družiny" style="ellipse;whiteSpace=wrap;html=1;" vertex="1" parent="1">
          <mxGeometry x="-310" y="1002.5" width="140" height="70" as="geometry" />
        </mxCell>
        <mxCell id="Eu6DFmh3svqsplU7HH5--55" value="" style="endArrow=none;html=1;rounded=0;exitX=0;exitY=0.3333333333333333;exitDx=0;exitDy=0;exitPerimeter=0;" edge="1" parent="1" source="Eu6DFmh3svqsplU7HH5--9" target="Eu6DFmh3svqsplU7HH5--54">
          <mxGeometry width="50" height="50" relative="1" as="geometry">
            <mxPoint x="310" y="362.5" as="sourcePoint" />
            <mxPoint x="360" y="312.5" as="targetPoint" />
          </mxGeometry>
        </mxCell>
        <mxCell id="Eu6DFmh3svqsplU7HH5--56" value="" style="endArrow=none;html=1;rounded=0;exitX=1;exitY=0.5;exitDx=0;exitDy=0;entryX=0;entryY=0.3333333333333333;entryDx=0;entryDy=0;entryPerimeter=0;" edge="1" parent="1" source="Eu6DFmh3svqsplU7HH5--57" target="Eu6DFmh3svqsplU7HH5--2">
          <mxGeometry width="50" height="50" relative="1" as="geometry">
            <mxPoint x="1345" y="1060" as="sourcePoint" />
            <mxPoint x="1395" y="1010" as="targetPoint" />
          </mxGeometry>
        </mxCell>
        <mxCell id="Eu6DFmh3svqsplU7HH5--57" value="Pridáva skautov do svojej družiny" style="ellipse;whiteSpace=wrap;html=1;" vertex="1" parent="1">
          <mxGeometry x="1155" y="990" width="150" height="85" as="geometry" />
        </mxCell>
        <mxCell id="Eu6DFmh3svqsplU7HH5--58" value="Odoberá skautov zo svojej družiny" style="ellipse;whiteSpace=wrap;html=1;" vertex="1" parent="1">
          <mxGeometry x="1100" y="1140" width="155" height="90" as="geometry" />
        </mxCell>
        <mxCell id="Eu6DFmh3svqsplU7HH5--59" value="" style="endArrow=none;html=1;rounded=0;exitX=1;exitY=0.5;exitDx=0;exitDy=0;entryX=0;entryY=0.3333333333333333;entryDx=0;entryDy=0;entryPerimeter=0;" edge="1" parent="1" source="Eu6DFmh3svqsplU7HH5--58" target="Eu6DFmh3svqsplU7HH5--2">
          <mxGeometry width="50" height="50" relative="1" as="geometry">
            <mxPoint x="1345" y="1060" as="sourcePoint" />
            <mxPoint x="1395" y="1010" as="targetPoint" />
          </mxGeometry>
        </mxCell>
        <mxCell id="Eu6DFmh3svqsplU7HH5--63" value="Mení hodnotu už pridelených bodov za úlohy v rámci svojej družiny" style="ellipse;whiteSpace=wrap;html=1;" vertex="1" parent="1">
          <mxGeometry x="1795" y="1240" width="140" height="70" as="geometry" />
        </mxCell>
        <mxCell id="Eu6DFmh3svqsplU7HH5--65" value="" style="endArrow=none;html=1;rounded=0;exitX=1;exitY=0.3333333333333333;exitDx=0;exitDy=0;exitPerimeter=0;entryX=0;entryY=0.5;entryDx=0;entryDy=0;" edge="1" parent="1" source="Eu6DFmh3svqsplU7HH5--2" target="Eu6DFmh3svqsplU7HH5--63">
          <mxGeometry width="50" height="50" relative="1" as="geometry">
            <mxPoint x="1775" y="1290" as="sourcePoint" />
            <mxPoint x="1825" y="1240" as="targetPoint" />
          </mxGeometry>
        </mxCell>
        <mxCell id="Eu6DFmh3svqsplU7HH5--68" value="" style="endArrow=none;html=1;rounded=0;exitX=1;exitY=0.5;exitDx=0;exitDy=0;entryX=0;entryY=0.3333333333333333;entryDx=0;entryDy=0;entryPerimeter=0;" edge="1" parent="1" source="Eu6DFmh3svqsplU7HH5--52" target="Eu6DFmh3svqsplU7HH5--9">
          <mxGeometry width="50" height="50" relative="1" as="geometry">
            <mxPoint y="882.5" as="sourcePoint" />
            <mxPoint x="50" y="832.5" as="targetPoint" />
          </mxGeometry>
        </mxCell>
        <mxCell id="Eu6DFmh3svqsplU7HH5--70" value="&amp;lt;&amp;lt;include&amp;gt;&amp;gt;" style="endArrow=block;endSize=16;endFill=0;html=1;rounded=0;exitX=-0.019;exitY=0.386;exitDx=0;exitDy=0;entryX=1;entryY=0.5;entryDx=0;entryDy=0;dashed=1;exitPerimeter=0;" edge="1" parent="1" source="Eu6DFmh3svqsplU7HH5--52" target="Eu6DFmh3svqsplU7HH5--53">
          <mxGeometry width="160" relative="1" as="geometry">
            <mxPoint x="-415" y="652.5" as="sourcePoint" />
            <mxPoint x="-445" y="817.5" as="targetPoint" />
          </mxGeometry>
        </mxCell>
        <mxCell id="Eu6DFmh3svqsplU7HH5--71" value="Pridáva skautov do družiny" style="ellipse;whiteSpace=wrap;html=1;" vertex="1" parent="1">
          <mxGeometry x="-490" y="672.5" width="140" height="70" as="geometry" />
        </mxCell>
        <mxCell id="Eu6DFmh3svqsplU7HH5--72" value="&amp;lt;&amp;lt;extends&amp;gt;&amp;gt;" style="endArrow=block;endSize=16;endFill=0;html=1;rounded=0;entryX=0.429;entryY=0.014;entryDx=0;entryDy=0;entryPerimeter=0;exitX=0.976;exitY=0.719;exitDx=0;exitDy=0;dashed=1;exitPerimeter=0;" edge="1" parent="1" source="Eu6DFmh3svqsplU7HH5--71" target="Eu6DFmh3svqsplU7HH5--52">
          <mxGeometry x="0.0028" width="160" relative="1" as="geometry">
            <mxPoint x="-112" y="698.5" as="sourcePoint" />
            <mxPoint x="-320" y="716.5" as="targetPoint" />
            <mxPoint as="offset" />
          </mxGeometry>
        </mxCell>
        <mxCell id="Eu6DFmh3svqsplU7HH5--73" value="Odstraňuje družiny" style="ellipse;whiteSpace=wrap;html=1;" vertex="1" parent="1">
          <mxGeometry x="-300" y="902.5" width="140" height="70" as="geometry" />
        </mxCell>
        <mxCell id="Eu6DFmh3svqsplU7HH5--75" value="Schvaluje úlohy" style="ellipse;whiteSpace=wrap;html=1;" vertex="1" parent="1">
          <mxGeometry x="350" y="850" width="140" height="70" as="geometry" />
        </mxCell>
        <mxCell id="Eu6DFmh3svqsplU7HH5--76" value="Udeľuje body za úlohu" style="ellipse;whiteSpace=wrap;html=1;" vertex="1" parent="1">
          <mxGeometry x="590" y="920" width="140" height="70" as="geometry" />
        </mxCell>
        <mxCell id="Eu6DFmh3svqsplU7HH5--77" value="&amp;lt;&amp;lt;include&amp;gt;&amp;gt;" style="endArrow=block;endSize=16;endFill=0;html=1;rounded=0;exitX=1;exitY=0.5;exitDx=0;exitDy=0;entryX=0;entryY=0.5;entryDx=0;entryDy=0;dashed=1;" edge="1" parent="1" source="Eu6DFmh3svqsplU7HH5--75" target="Eu6DFmh3svqsplU7HH5--76">
          <mxGeometry width="160" relative="1" as="geometry">
            <mxPoint x="60" y="832.5" as="sourcePoint" />
            <mxPoint x="220" y="832.5" as="targetPoint" />
          </mxGeometry>
        </mxCell>
        <mxCell id="Eu6DFmh3svqsplU7HH5--78" value="" style="endArrow=none;html=1;rounded=0;exitX=1;exitY=0.5;exitDx=0;exitDy=0;entryX=0;entryY=0.3333333333333333;entryDx=0;entryDy=0;entryPerimeter=0;" edge="1" parent="1" source="Eu6DFmh3svqsplU7HH5--73" target="Eu6DFmh3svqsplU7HH5--9">
          <mxGeometry width="50" height="50" relative="1" as="geometry">
            <mxPoint x="120" y="912.5" as="sourcePoint" />
            <mxPoint x="170" y="862.5" as="targetPoint" />
          </mxGeometry>
        </mxCell>
        <mxCell id="Eu6DFmh3svqsplU7HH5--79" value="" style="endArrow=none;html=1;rounded=0;exitX=1;exitY=0.3333333333333333;exitDx=0;exitDy=0;exitPerimeter=0;entryX=0;entryY=0.5;entryDx=0;entryDy=0;" edge="1" parent="1" source="Eu6DFmh3svqsplU7HH5--9" target="Eu6DFmh3svqsplU7HH5--75">
          <mxGeometry width="50" height="50" relative="1" as="geometry">
            <mxPoint x="280" y="892.5" as="sourcePoint" />
            <mxPoint x="330" y="842.5" as="targetPoint" />
          </mxGeometry>
        </mxCell>
        <mxCell id="Eu6DFmh3svqsplU7HH5--80" value="Zamieta schválenie úloh" style="ellipse;whiteSpace=wrap;html=1;" vertex="1" parent="1">
          <mxGeometry x="350" y="960" width="140" height="70" as="geometry" />
        </mxCell>
        <mxCell id="Eu6DFmh3svqsplU7HH5--81" value="" style="endArrow=none;html=1;rounded=0;exitX=1;exitY=0.3333333333333333;exitDx=0;exitDy=0;exitPerimeter=0;entryX=0;entryY=0.5;entryDx=0;entryDy=0;" edge="1" parent="1" source="Eu6DFmh3svqsplU7HH5--9" target="Eu6DFmh3svqsplU7HH5--80">
          <mxGeometry width="50" height="50" relative="1" as="geometry">
            <mxPoint x="340" y="802.5" as="sourcePoint" />
            <mxPoint x="390" y="752.5" as="targetPoint" />
          </mxGeometry>
        </mxCell>
        <mxCell id="Eu6DFmh3svqsplU7HH5--82" value="Spätne zamieta už schválene úlohy" style="ellipse;whiteSpace=wrap;html=1;" vertex="1" parent="1">
          <mxGeometry x="330" y="1072.5" width="140" height="70" as="geometry" />
        </mxCell>
        <mxCell id="Eu6DFmh3svqsplU7HH5--83" value="Odoberá body pridelené za úlohu" style="ellipse;whiteSpace=wrap;html=1;" vertex="1" parent="1">
          <mxGeometry x="570" y="1160" width="140" height="70" as="geometry" />
        </mxCell>
        <mxCell id="Eu6DFmh3svqsplU7HH5--84" value="&amp;lt;&amp;lt;include&amp;gt;&amp;gt;" style="endArrow=block;endSize=16;endFill=0;html=1;rounded=0;exitX=1;exitY=0.5;exitDx=0;exitDy=0;entryX=0;entryY=0.5;entryDx=0;entryDy=0;dashed=1;" edge="1" parent="1" source="Eu6DFmh3svqsplU7HH5--82" target="Eu6DFmh3svqsplU7HH5--83">
          <mxGeometry width="160" relative="1" as="geometry">
            <mxPoint x="350" y="782.5" as="sourcePoint" />
            <mxPoint x="500" y="832.5" as="targetPoint" />
          </mxGeometry>
        </mxCell>
        <mxCell id="Eu6DFmh3svqsplU7HH5--85" value="" style="endArrow=none;html=1;rounded=0;exitX=1;exitY=0.3333333333333333;exitDx=0;exitDy=0;exitPerimeter=0;entryX=0;entryY=0.5;entryDx=0;entryDy=0;" edge="1" parent="1" source="Eu6DFmh3svqsplU7HH5--9" target="Eu6DFmh3svqsplU7HH5--82">
          <mxGeometry width="50" height="50" relative="1" as="geometry">
            <mxPoint x="360" y="952.5" as="sourcePoint" />
            <mxPoint x="410" y="902.5" as="targetPoint" />
          </mxGeometry>
        </mxCell>
        <mxCell id="Eu6DFmh3svqsplU7HH5--86" value="Mení hodnotu už pridelených bodov za úlohy" style="ellipse;whiteSpace=wrap;html=1;" vertex="1" parent="1">
          <mxGeometry x="300" y="1210" width="140" height="70" as="geometry" />
        </mxCell>
        <mxCell id="Eu6DFmh3svqsplU7HH5--87" value="" style="endArrow=none;html=1;rounded=0;exitX=1;exitY=0.3333333333333333;exitDx=0;exitDy=0;exitPerimeter=0;entryX=0.002;entryY=0.374;entryDx=0;entryDy=0;entryPerimeter=0;" edge="1" parent="1" source="Eu6DFmh3svqsplU7HH5--9" target="Eu6DFmh3svqsplU7HH5--86">
          <mxGeometry width="50" height="50" relative="1" as="geometry">
            <mxPoint x="310" y="982.5" as="sourcePoint" />
            <mxPoint x="360" y="932.5" as="targetPoint" />
          </mxGeometry>
        </mxCell>
        <mxCell id="Eu6DFmh3svqsplU7HH5--88" value="Prehľadáva skautov v rámci svojej družiny" style="ellipse;whiteSpace=wrap;html=1;" vertex="1" parent="1">
          <mxGeometry x="210" y="1322.5" width="140" height="70" as="geometry" />
        </mxCell>
        <mxCell id="Eu6DFmh3svqsplU7HH5--89" value="" style="endArrow=none;html=1;rounded=0;exitX=1;exitY=0.3333333333333333;exitDx=0;exitDy=0;exitPerimeter=0;entryX=0.054;entryY=0.296;entryDx=0;entryDy=0;entryPerimeter=0;" edge="1" parent="1" source="Eu6DFmh3svqsplU7HH5--9" target="Eu6DFmh3svqsplU7HH5--88">
          <mxGeometry width="50" height="50" relative="1" as="geometry">
            <mxPoint x="320" y="1052.5" as="sourcePoint" />
            <mxPoint x="370" y="1002.5" as="targetPoint" />
          </mxGeometry>
        </mxCell>
        <mxCell id="Eu6DFmh3svqsplU7HH5--90" value="Pridáva skautov do družiny" style="ellipse;whiteSpace=wrap;html=1;" vertex="1" parent="1">
          <mxGeometry x="-290" y="1222.5" width="150" height="85" as="geometry" />
        </mxCell>
        <mxCell id="Eu6DFmh3svqsplU7HH5--91" value="" style="endArrow=none;html=1;rounded=0;exitX=0.975;exitY=0.298;exitDx=0;exitDy=0;exitPerimeter=0;entryX=0;entryY=0.3333333333333333;entryDx=0;entryDy=0;entryPerimeter=0;" edge="1" parent="1" source="Eu6DFmh3svqsplU7HH5--90" target="Eu6DFmh3svqsplU7HH5--9">
          <mxGeometry width="50" height="50" relative="1" as="geometry">
            <mxPoint x="-80" y="1062.5" as="sourcePoint" />
            <mxPoint x="-30" y="1012.5" as="targetPoint" />
          </mxGeometry>
        </mxCell>
        <mxCell id="Eu6DFmh3svqsplU7HH5--92" value="Odoberá skautov z družiny" style="ellipse;whiteSpace=wrap;html=1;" vertex="1" parent="1">
          <mxGeometry x="-120" y="1302.5" width="155" height="90" as="geometry" />
        </mxCell>
        <mxCell id="Eu6DFmh3svqsplU7HH5--93" value="" style="endArrow=none;html=1;rounded=0;exitX=0.5;exitY=0;exitDx=0;exitDy=0;entryX=0;entryY=0.3333333333333333;entryDx=0;entryDy=0;entryPerimeter=0;" edge="1" parent="1" source="Eu6DFmh3svqsplU7HH5--92" target="Eu6DFmh3svqsplU7HH5--9">
          <mxGeometry width="50" height="50" relative="1" as="geometry">
            <mxPoint x="-50" y="1182.5" as="sourcePoint" />
            <mxPoint y="1132.5" as="targetPoint" />
          </mxGeometry>
        </mxCell>
        <mxCell id="Eu6DFmh3svqsplU7HH5--94" value="" style="endArrow=block;html=1;rounded=0;entryX=0;entryY=0.3333333333333333;entryDx=0;entryDy=0;entryPerimeter=0;exitX=0.5;exitY=0;exitDx=0;exitDy=0;exitPerimeter=0;startArrow=none;startFill=0;endFill=0;endSize=16;" edge="1" parent="1" source="Eu6DFmh3svqsplU7HH5--9" target="Eu6DFmh3svqsplU7HH5--1">
          <mxGeometry width="50" height="50" relative="1" as="geometry">
            <mxPoint x="115" y="842.5" as="sourcePoint" />
            <mxPoint x="35" y="552.5" as="targetPoint" />
          </mxGeometry>
        </mxCell>
      </root>
    </mxGraphModel>
  </diagram>
</mxfile>
